P3
8 7
255
158 141 110 110 98 76 71 63 49 255 253 197 138 122 95 250 223 173 167 149 116 
134 119 93 100 89 69 216 192 149 158 141 109 233 207 161 255 250 195 158 141 110 
147 131 102 102 91 70 104 93 72 52 46 36 61 54 42 213 190 148 189 168 131 
220 196 152 153 136 106 207 185 144 228 203 158 127 113 88 69 62 48 172 153 119 
87 77 60 179 160 124 117 104 81 139 123 96 218 195 151 173 154 120 154 137 107 
176 157 122 89 80 62 244 217 169 63 56 44 169 150 117 187 167 130 77 68 53 
132 118 91 93 82 64 171 152 118 187 166 129 148 132 103 176 157 122 255 255 204 
141 125 97 156 138 108 95 84 66 134 120 93 126 112 87 50 44 34 99 88 68 
