P3
7 4
255
231 206 160 118 105 81 238 212 165 233 207 161 
176 157 122 210 187 145 169 151 117 137 122 95 
130 116 90 160 142 111 136 121 94 150 133 104 
157 140 109 255 255 215 57 51 40 153 136 106 
140 125 97 89 80 62 131 117 91 217 194 151 
135 120 93 98 87 68 156 138 108 211 188 146 
134 119 92 176 157 122 255 242 188 151 134 104 
