P3
5 3
255
96 86 67 145 130 101 201 178 139 
140 125 97 92 82 64 38 33 26 
66 59 46 87 77 60 241 214 167 
215 191 149 244 218 169 203 181 141 
119 106 82 209 187 145 184 164 127 
