P3
3 3
255
114 101 79 80 71 55 223 198 154 
219 195 152 127 113 88 255 255 210 
232 207 161 110 98 76 255 248 193 
