P3
8 9
255
71 63 49 113 100 78 203 181 141 251 223 174 197 176 137 173 154 120 255 237 184 255 255 202 234 209 162 
125 111 86 113 100 78 70 62 48 63 56 44 53 47 37 76 68 53 223 199 155 255 242 189 255 243 190 
134 120 93 255 253 197 139 124 96 255 229 179 165 147 114 96 85 66 59 52 41 132 118 91 255 255 209 
95 85 66 209 186 145 59 53 41 200 178 139 105 93 73 121 108 84 240 214 166 125 111 87 87 78 60 
151 135 105 150 134 104 196 174 136 126 113 88 133 118 92 134 120 93 228 203 158 120 107 83 174 155 121 
96 85 66 212 189 147 202 180 140 152 135 105 72 64 49 222 198 154 227 202 157 236 210 163 63 56 44 
204 181 141 183 163 127 104 93 72 142 126 98 128 114 89 89 80 62 160 142 111 16 14 11 227 202 158 
151 134 104 37 33 26 141 126 98 187 166 129 255 255 216 98 88 68 142 126 98 169 150 117 235 209 162 
