P3
5 7
255
156 139 108 52 46 36 55 49 38 248 221 172 168 149 116 255 253 197 85 76 59 
255 255 202 116 103 80 157 140 109 249 222 173 158 141 109 255 234 182 166 148 115 
151 135 105 50 45 35 197 175 137 255 255 205 212 189 147 89 79 62 179 159 124 
255 255 203 164 146 114 100 89 69 113 100 78 166 148 115 160 142 110 89 79 62 
237 211 164 54 48 38 255 244 190 193 172 134 186 166 129 197 175 137 226 201 157 
