P3
8 7
255
50 175 25 113 45 169 36 18 229 227 233 86 144 45 249 181 195 156 134 124 103 
45 126 106 111 70 15 250 99 222 64 118 225 236 160 94 237 192 216 236 54 130 
94 140 16 20 62 247 69 41 245 26 45 40 12 20 218 94 222 33 245 104 71 
199 153 129 199 47 208 66 176 247 22 235 208 38 140 25 50 63 9 209 77 163 
112 4 213 18 195 119 73 96 79 208 29 186 17 243 134 209 84 142 221 77 46 
183 129 28 79 49 112 97 214 219 80 28 57 253 66 102 44 193 117 163 10 30 
96 73 205 16 60 215 106 168 1 174 102 214 220 40 167 83 158 120 220 216 225 
238 8 219 244 18 245 13 94 95 59 136 38 145 30 244 56 34 10 81 67 83 
