P3
7 4
255
82 217 172 32 133 17 177 178 172 177 206 28 
234 86 98 241 118 133 11 206 35 144 78 111 
138 87 49 106 151 12 113 104 64 118 127 32 
168 62 234 237 233 203 73 37 4 40 155 96 
11 116 249 58 75 50 98 68 217 93 216 81 
234 10 189 85 33 212 202 88 48 241 96 227 
238 32 85 175 126 57 188 201 231 53 147 91 
