P3
5 3
255
103 66 29 20 158 88 205 101 227 
18 147 110 82 54 99 42 1 110 
17 24 219 152 19 68 231 191 18 
59 207 175 50 254 158 86 163 235 
184 16 185 34 199 230 110 149 141 
