P3
3 3
255
92 72 122 24 85 29 48 245 84 
15 230 193 79 101 99 200 239 218 
138 229 13 91 56 170 214 212 167 
