P3
8 9
255
97 11 133 68 78 141 43 186 229 221 169 183 124 187 28 233 73 135 184 240 49 204 246 121 194 158 196 
235 23 81 110 72 78 29 35 168 59 0 215 108 1 57 166 13 8 147 210 23 253 224 6 185 201 247 
55 112 143 198 240 119 211 34 163 240 181 131 238 72 87 73 64 98 33 31 119 230 47 33 231 213 253 
123 44 72 94 191 134 88 13 80 77 193 116 69 92 40 84 114 6 110 223 135 23 101 206 105 21 161 
111 125 64 135 68 241 163 157 61 29 96 221 73 101 142 157 39 229 78 198 241 18 101 191 66 185 35 
169 4 144 73 182 233 201 131 120 67 103 246 52 31 147 251 112 200 73 236 92 250 122 235 37 37 111 
41 204 165 171 103 195 152 38 84 218 48 106 121 67 157 44 36 238 116 105 181 6 4 58 187 155 186 
127 94 153 56 14 27 246 24 141 107 160 117 227 228 252 30 56 233 134 57 244 149 97 191 231 126 251 
