P3
5 7
255
174 60 222 71 28 14 9 45 93 245 158 164 250 61 122 244 193 215 108 30 107 
236 205 219 144 34 176 49 170 41 233 200 23 171 98 85 208 230 24 160 75 243 
163 106 33 68 0 127 227 131 41 204 242 157 103 178 188 12 90 83 172 126 77 
241 224 139 172 91 145 40 53 232 138 17 244 163 96 153 213 49 205 37 44 218 
87 206 236 13 21 178 229 230 41 136 126 230 106 162 107 94 183 105 176 158 189 
