P3
6 4
255
169 50 248 102 62 153 11 48 101 205 98 118 
213 88 79 31 129 123 194 240 235 120 84 83 
175 184 115 55 110 220 116 168 146 33 132 87 
100 147 50 134 212 205 107 11 176 227 91 214 
1 86 56 38 142 84 14 10 215 127 169 129 
68 54 253 71 194 231 20 161 98 216 195 205 
