P3
5 3
255
31 140 140 28 34 51 54 136 22 
13 90 2 15 182 0 94 166 203 
160 64 157 40 175 87 231 37 32 
138 5 177 182 182 24 7 27 123 
210 23 200 72 198 55 43 79 51 
