P3
5 3
255
97 151 21 221 141 186 110 29 133 
175 54 201 173 31 222 233 143 189 
148 128 219 166 7 239 31 21 1 
247 115 75 10 252 239 116 122 97 
156 49 129 246 205 238 192 254 19 
