P3
3 3
255
81 184 241 8 245 39 129 223 204 
54 127 24 176 154 230 98 194 120 
224 62 15 29 96 65 105 136 234 
