P3
6 4
255
151 134 105 116 103 80 60 53 41 178 158 123 
166 147 115 134 119 93 255 255 211 127 113 88 
232 206 160 147 131 102 202 180 140 130 116 90 
161 144 112 254 226 176 83 74 58 199 177 138 
77 68 53 140 124 97 53 47 37 204 181 141 
116 103 80 220 196 153 150 133 104 255 243 189 
