P3
5 3
255
146 130 101 46 41 32 129 115 90 
74 66 51 145 130 101 202 180 140 
141 126 98 166 148 115 125 111 86 
91 81 63 216 192 149 46 41 32 
138 122 95 190 170 132 87 77 60 
