P3
5 3
255
158 140 109 230 205 159 90 80 62 
148 131 102 133 118 92 237 211 164 
197 176 137 115 102 80 28 25 19 
199 177 138 242 216 168 157 140 109 
123 109 85 255 255 207 255 244 190 
