P3
3 3
255
218 194 151 198 177 138 255 232 180 
123 110 85 231 205 160 210 187 145 
138 123 96 97 86 67 190 169 131 
